<svg width="24" height="24" viewBox="0 0 24 24" fill="currentColor" xmlns="http://www.w3.org/2000/svg">
<path fill-rule="evenodd" clip-rule="evenodd" d="M5.6351 4L3 10.3461V19H21V10.3461L18.3649 4H5.6351ZM19.0324 2C19.4366 2 19.801 2.24327 19.956 2.61651L22.9235 9.76325C22.974 9.8848 23 10.0151 23 10.1467V20C23 20.5523 22.5523 21 22 21H2C1.44772 21 1 20.5523 1 20V10.1467C1 10.0151 1.02598 9.8848 1.07645 9.76325L4.044 2.61651C4.19899 2.24327 4.5634 2 4.96755 2H19.0324ZM4 11C4 10.4477 4.44772 10 5 10H19C19.5523 10 20 10.4477 20 11C20 11.5523 19.5523 12 19 12H5C4.44772 12 4 11.5523 4 11ZM9 16V15H15V16H9ZM7 14C7 13.4477 7.44772 13 8 13H16C16.5523 13 17 13.4477 17 14V17C17 17.5523 16.5523 18 16 18H8C7.44772 18 7 17.5523 7 17V14Z"/>
</svg>
