<svg width="24" height="24" viewBox="0 0 24 24" fill="currentColor" xmlns="http://www.w3.org/2000/svg">
<path fill-rule="evenodd" clip-rule="evenodd" d="M4.7072 3.29289C4.31668 2.90237 3.68351 2.90237 3.29299 3.29289C2.90246 3.68342 2.90246 4.31658 3.29299 4.70711L10.364 11.7781L3.29289 18.8493C2.90237 19.2398 2.90237 19.8729 3.29289 20.2635C3.68342 20.654 4.31658 20.654 4.70711 20.2635L11.7782 13.1924L18.8493 20.2635C19.2399 20.654 19.873 20.654 20.2635 20.2635C20.6541 19.8729 20.6541 19.2398 20.2635 18.8492L13.1924 11.7781L20.2635 4.70713C20.654 4.3166 20.654 3.68344 20.2635 3.29291C19.8729 2.90239 19.2398 2.90239 18.8492 3.29291L11.7782 10.3639L4.7072 3.29289Z"/>
</svg>
