<svg width="24" height="24" viewBox="0 0 24 24"  fill="currentColor" xmlns="http://www.w3.org/2000/svg">
<path fill-rule="evenodd" clip-rule="evenodd" d="M20 12C20 16.4183 16.4183 20 12 20C7.58172 20 4 16.4183 4 12C4 7.58172 7.58172 4 12 4C16.4183 4 20 7.58172 20 12ZM22 12C22 17.5228 17.5228 22 12 22C6.47715 22 2 17.5228 2 12C2 6.47715 6.47715 2 12 2C17.5228 2 22 6.47715 22 12ZM17.1923 8.29289C17.5828 8.68342 17.5828 9.31658 17.1923 9.70711L11.5417 15.3578L11.5355 15.3639C11.447 15.4525 11.346 15.5209 11.2382 15.5693C11.1676 15.601 11.0941 15.6241 11.0193 15.6385C10.7042 15.6996 10.3653 15.608 10.1212 15.364L10.1124 15.355L7.29289 12.5355C6.90237 12.145 6.90237 11.5118 7.29289 11.1213C7.68342 10.7308 8.31658 10.7308 8.70711 11.1213L10.8284 13.2426L15.7781 8.29289C16.1686 7.90237 16.8018 7.90237 17.1923 8.29289Z"/>
</svg>
