<svg width="28" height="28" viewBox="0 0 28 28" fill="currentColor" xmlns="http://www.w3.org/2000/svg">
<path fill-rule="evenodd" clip-rule="evenodd" d="M12.9154 1.56506H14.7956C15.3898 1.56505 15.8983 1.56503 16.3163 1.59918C16.7562 1.63512 17.1878 1.71408 17.6014 1.92483C18.2225 2.2413 18.7275 2.74626 19.044 3.36735C19.2547 3.78098 19.3337 4.21257 19.3696 4.65247C19.4016 5.04363 19.4036 5.51405 19.4037 6.05982H23.9687C24.5505 6.05982 25.0222 6.53147 25.0222 7.11328C25.0222 7.69509 24.5505 8.16674 23.9687 8.16674H22.7748V19.7425C22.7748 20.6492 22.7748 21.3933 22.7254 21.9985C22.6741 22.6258 22.5645 23.1961 22.2926 23.7299C21.8684 24.5625 21.1915 25.2393 20.359 25.6635C19.8251 25.9355 19.2548 26.0451 18.6275 26.0964C18.0223 26.1458 17.2782 26.1458 16.3715 26.1458H11.3395C10.4328 26.1458 9.68873 26.1458 9.0835 26.0964C8.45622 26.0451 7.88587 25.9355 7.35206 25.6635C6.51953 25.2393 5.84266 24.5625 5.41847 23.7299C5.14647 23.1961 5.0369 22.6258 4.98565 21.9985C4.9362 21.3933 4.93621 20.6492 4.93622 19.7425L4.93622 8.16674H3.7423C3.16049 8.16674 2.68884 7.69509 2.68884 7.11328C2.68884 6.53147 3.16049 6.05982 3.7423 6.05982H8.3073C8.30741 5.51405 8.30945 5.04363 8.34141 4.65247C8.37735 4.21257 8.45631 3.78098 8.66706 3.36735C8.98352 2.74626 9.48849 2.2413 10.1096 1.92483C10.5232 1.71408 10.9548 1.63512 11.3947 1.59918C11.8127 1.56503 12.3212 1.56505 12.9154 1.56506ZM7.04314 8.16674V19.6986C7.04314 20.66 7.04396 21.3177 7.08557 21.8269C7.12618 22.3239 7.20031 22.5861 7.29574 22.7734C7.51794 23.2095 7.87249 23.5641 8.30858 23.7863C8.49587 23.8817 8.75808 23.9558 9.25507 23.9964C9.76435 24.038 10.422 24.0389 11.3834 24.0389H16.3276C17.289 24.0389 17.9467 24.038 18.456 23.9964C18.9529 23.9558 19.2151 23.8817 19.4024 23.7863C19.8385 23.5641 20.1931 23.2095 20.4153 22.7734C20.5107 22.5861 20.5848 22.3239 20.6255 21.8269C20.6671 21.3177 20.6679 20.66 20.6679 19.6986V8.16674H7.04314ZM17.2968 6.05982H10.4142C10.4145 5.49919 10.4172 5.11957 10.4413 4.82404C10.4666 4.51443 10.5101 4.39099 10.5443 4.32388C10.6588 4.09922 10.8415 3.91658 11.0661 3.80211C11.1332 3.76792 11.2567 3.7244 11.5663 3.6991C11.8882 3.6728 12.3098 3.67198 12.9566 3.67198H14.7545C15.4012 3.67198 15.8228 3.6728 16.1448 3.6991C16.4544 3.7244 16.5778 3.76792 16.6449 3.80211C16.8696 3.91658 17.0522 4.09922 17.1667 4.32388C17.2009 4.39099 17.2444 4.51443 17.2697 4.82404C17.2938 5.11957 17.2965 5.49919 17.2968 6.05982ZM11.6081 12.2401C12.1899 12.2401 12.6616 12.7118 12.6616 13.2936V18.912C12.6616 19.4938 12.1899 19.9655 11.6081 19.9655C11.0263 19.9655 10.5547 19.4938 10.5547 18.912V13.2936C10.5547 12.7118 11.0263 12.2401 11.6081 12.2401ZM16.1029 12.2401C16.6847 12.2401 17.1563 12.7118 17.1563 13.2936V18.912C17.1563 19.4938 16.6847 19.9655 16.1029 19.9655C15.5211 19.9655 15.0494 19.4938 15.0494 18.912V13.2936C15.0494 12.7118 15.5211 12.2401 16.1029 12.2401Z" fill="currentColor"/>
</svg>
