<svg viewBox="0 0 24 24"  fill="currentColor" xmlns="http://www.w3.org/2000/svg">
<path fill-rule="evenodd" clip-rule="evenodd" d="M11.6568 1C12.209 1 12.6568 1.44775 12.6568 2V14.2427L16.6065 10.293C16.9971 9.90247 17.6302 9.90247 18.0208 10.293C18.4112 10.6835 18.4112 11.3167 18.0208 11.7072L12.3638 17.364C11.9734 17.7545 11.3401 17.7545 10.9498 17.364L5.29279 11.7072C4.9024 11.3167 4.9024 10.6835 5.29279 10.293C5.68341 9.90247 6.31647 9.90247 6.70709 10.293L10.6568 14.2427V2C10.6568 1.44775 11.1046 1 11.6568 1ZM4 20C3.44772 20 3 20.4477 3 21C3 21.5523 3.44772 22 4 22H20C20.5523 22 21 21.5523 21 21C21 20.4477 20.5523 20 20 20H4Z" />
</svg>
