<svg viewBox="0 0 24 24"  fill="currentColor" xmlns="http://www.w3.org/2000/svg">
<path fill-rule="evenodd" clip-rule="evenodd" d="M12 4L3.33974 19H20.6603L12 4ZM12.866 1.5C12.4811 0.833334 11.5189 0.833333 11.134 1.5L0.741668 19.5C0.356768 20.1667 0.837892 21 1.60769 21H22.3923C23.1621 21 23.6432 20.1667 23.2583 19.5L12.866 1.5ZM11 8C11 7.44772 11.4477 7 12 7C12.5523 7 13 7.44772 13 8V14C13 14.5523 12.5523 15 12 15C11.4477 15 11 14.5523 11 14V8ZM12 16C11.4477 16 11 16.4477 11 17C11 17.5523 11.4477 18 12 18C12.5523 18 13 17.5523 13 17C13 16.4477 12.5523 16 12 16Z" />
</svg>
