<svg width="24" height="24" viewBox="0 0 24 24" fill="none" xmlns="http://www.w3.org/2000/svg">
<path fill-rule="evenodd" clip-rule="evenodd" d="M5.05103 13.2324C5.05096 12.7986 5.40275 12.4468 5.83653 12.4469L11.0103 12.4468C11.4441 12.4469 11.7959 12.7987 11.7959 13.2324L11.7959 18.4062C11.7959 18.84 11.4441 19.1918 11.0104 19.1917C10.5765 19.1918 10.2247 18.84 10.2247 18.4061V15.0501L4.45607 20.8187C4.1493 21.1255 3.65185 21.1255 3.34508 20.8187C3.03831 20.5119 3.03831 20.0145 3.34508 19.7077L9.03481 14.018H5.83666C5.40275 14.0181 5.05096 13.6663 5.05103 13.2324Z" fill="#333333"/>
<path fill-rule="evenodd" clip-rule="evenodd" d="M19.1912 11.0108C19.1912 11.4446 18.8394 11.7964 18.4057 11.7963L13.2319 11.7964C12.7981 11.7963 12.4463 11.4445 12.4463 11.0107L12.4463 5.83696C12.4463 5.40319 12.798 5.05139 13.2318 5.05146C13.6657 5.05139 14.0175 5.40319 14.0175 5.8371L14.0175 9.19311L19.7861 3.42445C20.0929 3.11768 20.5903 3.11768 20.8971 3.42445C21.2039 3.73122 21.2039 4.22866 20.8971 4.53543L15.2074 10.2252L18.4055 10.2252C18.8394 10.2251 19.1912 10.5769 19.1912 11.0108Z" fill="#333333"/>
</svg>
