<svg width="24" height="24" viewBox="0 0 24 24" fill="none" xmlns="http://www.w3.org/2000/svg">
<path fill-rule="evenodd" clip-rule="evenodd" d="M9.50159 3.7613C9.20224 2.83999 7.89883 2.83998 7.59948 3.76129L6.85018 6.06741C6.7163 6.47943 6.33235 6.75839 5.89912 6.75839H3.47433C2.50561 6.75839 2.10283 7.99801 2.88654 8.56741L4.84824 9.99267C5.19873 10.2473 5.34539 10.6987 5.21151 11.1107L4.46221 13.4168C4.16286 14.3381 5.21734 15.1042 6.00105 14.5348L7.96275 13.1096C8.31324 12.8549 8.78783 12.8549 9.13832 13.1096L11.1 14.5348C11.8837 15.1042 12.9382 14.3381 12.6389 13.4168L11.8896 11.1107C11.7557 10.6987 11.9023 10.2473 12.2528 9.99267L14.2145 8.56741C14.9982 7.99801 14.5955 6.75839 13.6267 6.75839H11.202C10.7687 6.75839 10.3848 6.47943 10.2509 6.06741L9.50159 3.7613ZM18.5282 14.072C18.2289 13.1507 16.9255 13.1507 16.6261 14.072L16.358 14.8971C16.2242 15.3091 15.8402 15.588 15.407 15.588H14.5395C13.5707 15.588 13.168 16.8277 13.9517 17.3971L14.6535 17.907C15.004 18.1616 15.1507 18.613 15.0168 19.025L14.7487 19.8501C14.4494 20.7714 15.5038 21.5375 16.2875 20.9681L16.9894 20.4582C17.3399 20.2036 17.8145 20.2036 18.165 20.4582L18.8668 20.9681C19.6505 21.5375 20.705 20.7714 20.4057 19.8501L20.1376 19.025C20.0037 18.613 20.1504 18.1616 20.5009 17.907L21.2027 17.3971C21.9864 16.8277 21.5836 15.588 20.6149 15.588H19.7474C19.3142 15.588 18.9302 15.3091 18.7963 14.8971L18.5282 14.072Z" fill="#333333"/>
</svg>
