<svg width="24" height="24" viewBox="0 0 24 24" fill="none" xmlns="http://www.w3.org/2000/svg">
<path fill-rule="evenodd" clip-rule="evenodd" d="M11.3375 2.18985L2.58746 7.65185C2.22217 7.87999 2 8.28004 2 8.71042V21.7515C2 22.441 2.55969 23 3.25 23H10.75V16.7577C10.75 16.0683 11.3097 15.5093 12 15.5093C12.6903 15.5093 13.25 16.0683 13.25 16.7577V23H20.75C21.4403 23 22 22.441 22 21.7515V8.71042C22 8.28004 21.7778 7.87999 21.4125 7.65185L12.6625 2.18985C12.2573 1.93672 11.7427 1.93672 11.3375 2.18985ZM15.25 21H20V9.12778L12 4.13396L4 9.12778V21H8.75V16.7577C8.75 14.9614 10.2075 13.5093 12 13.5093C13.7925 13.5093 15.25 14.9614 15.25 16.7577V21Z" fill="#333333"/>
</svg>
