<svg width="24" height="24" viewBox="0 0 24 24" fill="currentColor" xmlns="http://www.w3.org/2000/svg">
<path fill-rule="evenodd" clip-rule="evenodd" d="M12 20C16.4183 20 20 16.4183 20 12C20 7.58172 16.4183 4 12 4C7.58172 4 4 7.58172 4 12C4 16.4183 7.58172 20 12 20ZM12 22C17.5228 22 22 17.5228 22 12C22 6.47715 17.5228 2 12 2C6.47715 2 2 6.47715 2 12C2 17.5228 6.47715 22 12 22ZM7.7574 16.2426C7.36688 15.8521 7.36688 15.2189 7.7574 14.8284L10.5857 12.0001L7.75725 9.17161C7.36672 8.78109 7.36672 8.14792 7.75725 7.7574C8.14777 7.36688 8.78094 7.36688 9.17146 7.7574L11.9999 10.5859L14.8285 7.75735C15.219 7.36682 15.8522 7.36682 16.2427 7.75735C16.6332 8.14787 16.6332 8.78104 16.2427 9.17156L13.4142 12.0001L16.2425 14.8285C16.6331 15.219 16.6331 15.8522 16.2425 16.2427C15.852 16.6332 15.2188 16.6332 14.8283 16.2427L11.9999 13.4143L9.17161 16.2426C8.78109 16.6332 8.14792 16.6332 7.7574 16.2426Z"/>
</svg>
