<svg width="24" height="24" viewBox="0 0 24 24" fill="currentColor" xmlns="http://www.w3.org/2000/svg">
<path fill-rule="evenodd" clip-rule="evenodd" d="M3.75 3C2.7835 3 2 3.7835 2 4.75V19.75C2 20.7165 2.7835 21.5 3.75 21.5H11.75C12.7165 21.5 13.5 20.7165 13.5 19.75V16.5C13.5 16.0858 13.1642 15.75 12.75 15.75C12.3358 15.75 12 16.0858 12 16.5V19.75C12 19.8881 11.8881 20 11.75 20H3.75C3.61193 20 3.5 19.8881 3.5 19.75V4.75C3.5 4.61193 3.61193 4.5 3.75 4.5H11.75C11.8881 4.5 12 4.61193 12 4.75V8C12 8.41421 12.3358 8.75 12.75 8.75C13.1642 8.75 13.5 8.41421 13.5 8V4.75C13.5 3.7835 12.7165 3 11.75 3H3.75ZM16.8295 7.9963C17.1578 7.6679 17.6904 7.6679 18.0187 7.9963L21.776 11.7535C22.1042 12.0819 22.1042 12.6144 21.776 12.9428L18.0187 16.7C17.6904 17.0284 17.1578 17.0284 16.8295 16.7C16.501 16.3716 16.501 15.839 16.8295 15.5106L19.2108 13.1294H8.59096C8.12655 13.1294 7.75001 12.7528 7.75001 12.2884C7.75001 11.824 8.12655 11.4474 8.59096 11.4474H19.0913L16.8295 9.18567C16.501 8.85727 16.501 8.32469 16.8295 7.9963Z" />
</svg>
