<?xml version="1.0" encoding="UTF-8"?>
<svg id="_레이어_2" data-name="레이어 2" xmlns="http://www.w3.org/2000/svg" fill="currentColor" viewBox="0 0 459.35 117.14">
  <g id="_레이어_1-2" data-name="레이어 1">
    <g>
      <rect class="cls-1" x="179.12" y="38.8" width="14.9" height="55.94" rx="7.45" ry="7.45"/>
      <path class="cls-1" d="M193.96,22.85c-1.54-4.08-6.09-6.14-10.17-4.6-4.08,1.54-6.14,6.09-4.6,10.17,1.54,4.08,6.09,6.14,10.17,4.6,4.08-1.54,6.14-6.09,4.6-10.17ZM188.24,30.06c-2.45.92-5.18-.31-6.1-2.76-.92-2.45.31-5.18,2.76-6.1,2.45-.92,5.18.31,6.1,2.76.92,2.45-.31,5.18-2.76,6.1Z"/>
      <circle class="cls-1" cx="186.57" cy="25.63" r="3.95"/>
      <path class="cls-1" d="M164.59,81.83c-3.75-2.32-6.79,2.15-9.83,1.25s-2.32-1.43-2.2-19.13v-9.58h7.21c3.93,0,7.12-3.19,7.12-7.12s-3.19-7.12-7.12-7.12h-7.21v-6.32c0-3.65-3.19-6.61-7.12-6.61h0c-3.93,0-7.12,2.96-7.12,6.61v6.32h-7.21c-3.93,0-7.12,3.19-7.12,7.12s3.19,7.12,7.12,7.12h7.21v26.86c0,4.16,3.35,13.87,15.19,13.87,10.93,0,17.24-9.46,11.09-13.27Z"/>
      <path class="cls-1" d="M336.31,83.83c-1.69-1.83-5.2-4.4-5.26-9.59-.05-4.1-.15-27.83-.15-27.83,0-4.27-3.49-7.76-7.76-7.76-3.3,0-6.11,2.09-7.23,5.01-4.04-2.33-8.71-3.69-13.71-3.69-15.17,0-27.46,12.3-27.46,27.46s12.3,27.46,27.46,27.46c6.94,0,13.27-2.6,18.1-6.85l4.58,4.58c3.02,3.02,7.87,2.93,10.98,0,2.6-2.45,2.34-6.75.46-8.8ZM301.57,82.44c-8.38,0-15.18-6.8-15.18-15.18s6.8-15.18,15.18-15.18,15.18,6.8,15.18,15.18-6.8,15.18-15.18,15.18Z"/>
      <path class="cls-1" d="M395.85,104.6c4.88-9.33,2.67-25.17,2.6-30.36-.05-4.1-.15-27.83-.15-27.83,0-4.27-3.49-7.76-7.76-7.76-3.3,0-6.11,2.09-7.23,5.01-4.04-2.33-8.71-3.69-13.71-3.69-15.17,0-27.46,12.3-27.46,27.46s12.3,27.46,27.46,27.46c6.94,0,13.27-2.6,18.1-6.85,0,0,.25,9.72-5.06,13.64-5.05,3.73-11.05,4.9-18.09,3.42-7.21-1.52-10.75-8.85-15.67-7.51-6.35,1.74-1.98,8.71,1.62,12.32,9.87,9.87,36.81,11,45.34-5.31ZM368.98,82.44c-8.38,0-15.18-6.8-15.18-15.18s6.8-15.18,15.18-15.18,15.18,6.8,15.18,15.18-6.8,15.18-15.18,15.18Z"/>
      <path class="cls-1" d="M35.62,0H8.94c-.35,0-.69.02-1.02.06,0,0-.02,0-.03,0C3.53.06,0,3.6,0,7.96v78.96c0,4.36,3.53,7.9,7.9,7.9s7.9-3.54,7.9-7.9v-31.64h19.83c15.26,0,27.63-12.37,27.63-27.63h0C63.26,12.37,50.89,0,35.62,0ZM51.2,27.61c0,8.76-7.1,15.86-15.86,15.86H14.96V11.75h20.39c8.76,0,15.86,7.1,15.86,15.86h0Z"/>
      <path class="cls-1" d="M101.44,81.72c-5.08,1.36-10.73.94-13.31.15-4.29-1.31-8.91-5.26-8.42-11.85h29.49c4.36,0,7.09-2.92,7.09-7.89,0,0,.01-26.45-24.68-26.45-14.85,0-26.48,9.08-26.48,27.5,0,18.91,8.79,30.93,26.97,31.62,8.14.31,15.87-1.84,19.93-4.92,2.41-1.83,5.06-5.64,2.41-9.06-1.91-2.47-6.62-.81-13.01.9ZM92.27,46.44c6.85,0,12.4,5.55,12.4,12.4h-24.79c0-6.85,5.55-12.4,12.4-12.4Z"/>
      <path class="cls-1" d="M444.5,81.72c-5.08,1.36-10.73.94-13.31.15-4.29-1.31-8.91-5.26-8.42-11.85h29.49c4.36,0,7.09-2.92,7.09-7.89,0,0,.01-26.45-24.68-26.45-14.85,0-26.48,9.08-26.48,27.5,0,18.91,8.79,30.93,26.97,31.62,8.14.31,15.87-1.84,19.93-4.92,2.41-1.83,5.06-5.64,2.41-9.06-1.91-2.47-6.62-.81-13.01.9ZM435.33,46.44c6.85,0,12.4,5.55,12.4,12.4h-24.79c0-6.85,5.55-12.4,12.4-12.4Z"/>
      <path class="cls-1" d="M262.87,44.27c0-.48-.05-.97-.15-1.44-.04-.22-.13-.42-.19-.63-.07-.25-.13-.51-.24-.76-.1-.25-.24-.47-.37-.7-.11-.19-.19-.39-.31-.58-.55-.82-1.25-1.52-2.06-2.06-.18-.12-.38-.21-.58-.31-.23-.13-.46-.27-.71-.37-.25-.1-.5-.16-.76-.24-.21-.06-.41-.14-.63-.19-.96-.19-1.96-.19-2.92,0-.22.04-.42.13-.63.19-.25.07-.51.13-.76.24-.25.1-.47.24-.71.37-.19.11-.39.19-.58.31-.41.27-.79.58-1.14.93l-11.82,11.82h-8.89l-11.82-11.82c-.35-.35-.73-.66-1.14-.93-.18-.12-.38-.21-.58-.31-.23-.13-.46-.27-.71-.37-.25-.1-.5-.16-.76-.24-.21-.06-.41-.14-.63-.19-.96-.19-1.96-.19-2.92,0-.22.04-.42.13-.63.19-.25.07-.51.13-.76.24-.25.1-.47.24-.71.37-.19.1-.39.19-.58.31-.82.55-1.52,1.25-2.06,2.06-.12.19-.21.39-.31.58-.13.23-.27.46-.37.7-.1.25-.16.5-.24.76-.06.21-.14.41-.19.63-.09.48-.14.96-.15,1.44,0,0,0,.01,0,.02v42.91c0,4.12,3.34,7.45,7.45,7.45s7.45-3.34,7.45-7.45v-24.92l.85.85c.46.46.98.82,1.51,1.14,1.24.92,2.76,1.49,4.43,1.49h14.61c1.66,0,3.19-.56,4.43-1.49.54-.31,1.05-.68,1.51-1.14l.85-.85v24.92c0,4.12,3.34,7.45,7.45,7.45s7.45-3.34,7.45-7.45v-42.91s0-.01,0-.02Z"/>
    </g>
  </g>
</svg>