<svg width="251" height="44" viewBox="0 0 251 44" fill="none" xmlns="http://www.w3.org/2000/svg">
<g clip-path="url(#clip0_47_454)">
<path d="M7.03435 28.3566C6.02853 33.6126 7.34601 36.8129 5.53271 40.4794C3.52815 42.7966 -0.325122 41.4119 0.0219563 37.9008C-0.275539 35.944 3.47149 13.1749 2.55775 10.4268C-5.04963 3.6448 16.3063 2.02702 19.8904 1.96344C48.5421 5.55223 23.7083 28.0952 7.03435 28.3566ZM9.3364 8.98561L7.81351 22.5566C27.9511 21.0307 35.5018 0.903757 9.3364 8.98561Z" fill="currentColor"/>
<path d="M60.1855 26.7651C59.0451 34.1193 44.489 40.9296 38.5604 34.1546C31.1371 25.2392 41.1245 6.7371 52.1106 6.64526C66.8225 9.56999 53.1943 26.5108 43.1361 26.9982C40.7774 28.3546 44.2199 31.7951 46.3944 31.4136C50.3327 33.5118 59.3142 21.0782 60.1784 26.7722L60.1855 26.7651ZM42.8316 22.2014C46.9327 21.4738 54.873 16.9313 52.6772 12.4665C48.5548 9.90909 43.6036 18.6197 42.8316 22.2014Z" fill="currentColor"/>
<path d="M76.0493 18.8715C75.5534 21.8669 69.1077 38.8571 78.0821 34.8798C79.7396 34.689 82.9979 30.1889 85.0662 31.9409C85.1016 42.9969 58.6528 49.2491 69.6885 19.26C67.3156 19.4367 66.3665 19.8181 64.4257 18.6666C62.5274 17.5222 62.7115 13.7285 65.6511 14.0252L71.1831 13.8203C72.7626 11.5597 72.2456 2.68659 76.7717 2.49585C82.1479 4.09244 79.2225 5.75967 77.6005 13.2552C84.8537 12.8878 85.5479 11.9624 88.4378 12.9302C89.7341 15.0213 88.2749 16.9853 84.9741 17.3809L76.0493 18.8786V18.8715Z" fill="currentColor"/>
<path fill-rule="evenodd" clip-rule="evenodd" d="M93.8047 24.8928V24.8645L93.7977 24.8716C93.6981 26.2808 93.3466 28.0311 92.9733 29.89C91.8327 35.5701 90.4882 42.2649 95.5047 43.3454C99.4648 43.2904 98.9366 39.4996 98.5712 36.8777C98.5144 36.4701 98.4615 36.0907 98.4301 35.7581C98.1169 32.1498 99.385 26.876 100.491 22.2786C100.885 20.6382 101.259 19.084 101.533 17.7223C101.497 15.1084 96.893 13.9215 95.4693 16.3305C94.6483 18.0812 94.589 18.9431 94.5006 20.2275C94.4289 21.2703 94.3379 22.5915 93.8047 24.8928ZM106.3 3.65672C106.151 8.7644 98.1893 9.89472 97.8139 4.37731C97.3534 -0.59614 106.144 -1.38737 106.3 3.65672ZM104.359 4.14423C104.359 5.41617 103.325 6.44728 102.05 6.44728C100.774 6.44728 99.7405 5.41617 99.7405 4.14423C99.7405 2.87229 100.774 1.84119 102.05 1.84119C103.325 1.84119 104.359 2.87229 104.359 4.14423Z" fill="currentColor"/>
<path d="M115.638 33.6702C107.67 44.7404 109.058 21.1448 110.128 17.9587C111.07 14.5536 109.993 10.7104 111.445 7.70094C114.144 5.77232 117.43 7.91994 117.133 11.7136C117.388 12.6744 114.852 22.5648 114.937 24.8678C125.718 1.32871 134.487 5.19302 134.281 25.0232C137.441 20.7916 143.986 1.44174 151.536 11.1343C154.207 14.9633 152.067 26.7399 156.657 29.6152C161.354 33.3806 150.955 37.471 149.355 32.2361C147.194 32.3068 148.448 9.90508 144.113 17.4571C140.826 25.7509 128.969 46.5348 128.02 23.0169C129.479 4.0415 117.721 29.9684 115.631 33.6702H115.638Z" fill="currentColor"/>
<path d="M179.759 26.9032C173.965 35.4867 162.448 40.7215 160.925 29.3547C159.756 21.3505 176.133 -1.29139 183.478 10.238C191.085 10.0825 180.206 29.1356 187.204 32.1946C191.397 37.3305 177.514 40.3824 179.752 26.9032H179.759ZM178.208 12.5834C174.008 12.7317 164.233 26.6136 168.122 30.2518C172.69 30.379 184.788 15.9885 178.208 12.5834Z" fill="currentColor"/>
<path d="M214.728 19.4415C181.932 46.3857 197.891 -8.08905 220.989 1.04542C225.82 3.80766 221.294 9.33214 221.004 13.5426C220.316 17.2656 219.41 36.1704 214.367 39.6391C208.601 49.9321 184.362 37.3572 192.741 32.7723C207.723 42.6203 213.084 38.0425 214.728 19.4345V19.4415ZM215.351 5.10047C210.329 5.4749 199.187 16.6228 202.934 21.2995C208.742 21.7304 220.607 9.50876 215.351 5.10047Z" fill="currentColor"/>
<path d="M250.394 26.7651C249.254 34.1193 234.698 40.9296 228.769 34.1546C221.346 25.2392 231.333 6.7371 242.32 6.64526C257.031 9.56999 243.403 26.5108 233.345 26.9982C230.986 28.3546 234.429 31.7951 236.603 31.4136C240.542 33.5118 249.523 21.0782 250.387 26.7722L250.394 26.7651ZM233.041 22.2014C237.142 21.4738 245.082 16.9313 242.879 12.4665C238.757 9.90909 233.806 18.6197 233.041 22.2014Z" fill="currentColor"/>
</g>
<defs>
<clipPath id="clip0_47_454">
<rect width="250.394" height="43.5846" fill="currentColor"/>
</clipPath>
</defs>
</svg>
