<svg width="24" height="24" viewBox="0 0 24 24" fill="currentColor" xmlns="http://www.w3.org/2000/svg">
<path fill-rule="evenodd" clip-rule="evenodd" d="M4.5 2.5V19.9444H4.79808C5.51631 19.9444 6.19985 20.2533 6.67446 20.7924L7.5 21.7301L7.87362 21.3057C8.86907 20.1751 10.6309 20.1751 11.6264 21.3057L12 21.7301L12.3736 21.3057C13.3691 20.1751 15.1309 20.1751 16.1264 21.3057L16.5 21.7301L17.3255 20.7924C17.8002 20.2533 18.4837 19.9444 19.2019 19.9444H19.5V2.5H4.5ZM4 1C3.44772 1 3 1.44771 3 2V20.4444C3 20.9967 3.44772 21.4444 4 21.4444H4.79808C5.08537 21.4444 5.35879 21.568 5.54863 21.7836L6.74945 23.1475C7.14763 23.5998 7.85238 23.5998 8.25055 23.1475L8.99945 22.2969C9.39763 21.8447 10.1024 21.8447 10.5006 22.2969L11.2494 23.1475C11.6476 23.5998 12.3524 23.5998 12.7506 23.1475L13.4994 22.2969C13.8976 21.8447 14.6024 21.8447 15.0006 22.2969L15.7494 23.1475C16.1476 23.5998 16.8524 23.5998 17.2506 23.1475L18.4514 21.7836C18.6412 21.568 18.9146 21.4444 19.2019 21.4444H20C20.5523 21.4444 21 20.9967 21 20.4444V2C21 1.44772 20.5523 1 20 1H4ZM8.5 5.75C8.5 5.33578 8.83579 5 9.25 5H16.75C17.1642 5 17.5 5.33578 17.5 5.75C17.5 6.16421 17.1642 6.5 16.75 6.5H9.25C8.83579 6.5 8.5 6.16421 8.5 5.75ZM9.25 9C8.83579 9 8.5 9.33578 8.5 9.75C8.5 10.1642 8.83579 10.5 9.25 10.5H16.75C17.1642 10.5 17.5 10.1642 17.5 9.75C17.5 9.33578 17.1642 9 16.75 9H9.25ZM8.5 13.75C8.5 13.3358 8.83579 13 9.25 13H16.75C17.1642 13 17.5 13.3358 17.5 13.75C17.5 14.1642 17.1642 14.5 16.75 14.5H9.25C8.83579 14.5 8.5 14.1642 8.5 13.75ZM6.75 10.5C7.16421 10.5 7.5 10.1642 7.5 9.75C7.5 9.33578 7.16421 9 6.75 9C6.33579 9 6 9.33578 6 9.75C6 10.1642 6.33579 10.5 6.75 10.5ZM7.5 5.75C7.5 6.16421 7.16421 6.5 6.75 6.5C6.33579 6.5 6 6.16421 6 5.75C6 5.33578 6.33579 5 6.75 5C7.16421 5 7.5 5.33578 7.5 5.75ZM6.75 14.5C7.16421 14.5 7.5 14.1642 7.5 13.75C7.5 13.3358 7.16421 13 6.75 13C6.33579 13 6 13.3358 6 13.75C6 14.1642 6.33579 14.5 6.75 14.5Z" />
</svg>
