<svg viewBox="0 0 24 24" fill="none" xmlns="http://www.w3.org/2000/svg">
<path fill-rule="evenodd" clip-rule="evenodd" d="M7.22668 7.71894C8.0658 5.83228 9.88847 4.52748 12 4.52748C14.1115 4.52748 15.9342 5.83228 16.7733 7.71894L16.9987 8.22557L17.5268 8.15318C17.6788 8.13235 17.8341 8.12156 17.9922 8.12156C19.9542 8.12156 21.5447 9.79103 21.5447 11.8504C21.5447 13.9098 19.9542 15.5793 17.9922 15.5793V17.1068C20.7579 17.1068 23 14.7534 23 11.8504C23 8.94742 20.7579 6.59408 17.9922 6.59408C17.9475 6.59408 17.9028 6.5947 17.8583 6.59593C16.7068 4.45076 14.5155 3 12 3C9.48452 3 7.29316 4.45076 6.14166 6.59592C6.09716 6.5947 6.05253 6.59408 6.00778 6.59408C3.24206 6.59408 1 8.94742 1 11.8504C1 14.7534 3.24206 17.1068 6.00778 17.1068V15.5793C4.04577 15.5793 2.45525 13.9098 2.45525 11.8504C2.45525 9.79103 4.04577 8.12156 6.00778 8.12156C6.16586 8.12156 6.32117 8.13235 6.47315 8.15318L7.00135 8.22557L7.22668 7.71894ZM7.90788 16.7584C7.65717 17.0215 7.65717 17.4483 7.90788 17.7114C8.15859 17.9746 8.56518 17.9746 8.8159 17.7114L11.3061 15.0976V21.3261C11.3061 21.6983 11.5936 22 11.9481 22C12.3027 22 12.5901 21.6983 12.5901 21.3261V15.0018L15.1716 17.7114C15.4223 17.9746 15.8289 17.9746 16.0796 17.7114C16.3303 17.4483 16.3303 17.0215 16.0796 16.7584L12.4477 12.9463C12.197 12.6832 11.7904 12.6832 11.5397 12.9463L7.90788 16.7584Z" fill="#333333"/>
</svg>
