<svg width="160" height="161" viewBox="0 0 160 161" fill="none" xmlns="http://www.w3.org/2000/svg">
<path d="M80.0004 13C58.2965 13 40.0056 27.5499 34.3249 47.4241C17.9642 51.4605 5.83374 66.2251 5.83374 83.8333C5.83374 96.8427 12.4646 108.3 22.4951 115.014C25.9373 117.318 30.5955 116.396 32.8996 112.953C35.2037 109.511 34.2812 104.853 30.839 102.549C24.7908 98.5004 20.8337 91.6279 20.8337 83.8333C20.8337 72.1191 29.7911 62.4893 41.2237 61.4305C44.6218 61.1158 47.3791 58.5466 47.9327 55.1791C50.467 39.7631 63.8667 28 80.0004 28C96.1341 28 109.534 39.7631 112.068 55.1791C112.622 58.5466 115.379 61.1158 118.777 61.4305C130.21 62.4893 139.167 72.1191 139.167 83.8333C139.167 91.6279 135.21 98.5004 129.162 102.549C125.72 104.853 124.797 109.511 127.101 112.953C129.405 116.396 134.064 117.318 137.506 115.014C147.536 108.3 154.167 96.8427 154.167 83.8333C154.167 66.2251 142.037 51.4605 125.676 47.4241C119.995 27.5499 101.704 13 80.0004 13Z" fill="white"/>
<path d="M80.0004 73C78.0113 73 76.1036 73.7902 74.6971 75.1967L48.0304 101.863C45.1015 104.792 45.1015 109.541 48.0304 112.47C50.9594 115.399 55.7081 115.399 58.637 112.47L72.5004 98.6066V140.5C72.5004 144.642 75.8583 148 80.0004 148C84.1425 148 87.5004 144.642 87.5004 140.5V98.6066L101.364 112.47C104.293 115.399 109.041 115.399 111.97 112.47C114.899 109.541 114.899 104.792 111.97 101.863L85.3037 75.1967C83.8972 73.7902 81.9895 73 80.0004 73Z" fill="white"/>
</svg>
