<svg width="24" height="24" viewBox="0 0 24 24" fill="currentColor" xmlns="http://www.w3.org/2000/svg">
<path fill-rule="evenodd" clip-rule="evenodd" d="M15 7C15 8.65685 13.6569 10 12 10C10.3431 10 9 8.65685 9 7C9 5.34315 10.3431 4 12 4C13.6569 4 15 5.34315 15 7ZM17 7C17 9.76142 14.7614 12 12 12C9.23858 12 7 9.76142 7 7C7 4.23858 9.23858 2 12 2C14.7614 2 17 4.23858 17 7ZM5 22C5 18.134 8.13401 15 12 15C15.866 15 19 18.134 19 22C19 22.5523 19.4477 23 20 23C20.5523 23 21 22.5523 21 22C21 17.0294 16.9706 13 12 13C7.02944 13 3 17.0294 3 22C3 22.5523 3.44772 23 4 23C4.55228 23 5 22.5523 5 22Z" />
</svg>
