<?xml version="1.0" encoding="UTF-8"?>
<svg id="symbol" xmlns="http://www.w3.org/2000/svg" xmlns:xlink="http://www.w3.org/1999/xlink" viewBox="0 0 170.08 170.08">
  <defs>
    <clipPath id="clippath">
      <rect class="cls-2" fill="#ea5656" width="170.08" height="170.08" rx="39.69" ry="39.69"/>
    </clipPath>
  </defs>
  <g id="_레이어_1-2" data-name="레이어 1">
    <g>
      <rect class="cls-1" fill="#ea5656" width="170.08" height="170.08" rx="39.69" ry="39.69"/>
      <g class="cls-5">
        <path class="cls-3" fill="#fff" d="M82.44,101.36c-.55-4.07-1.53-8.02-2.82-11.91-.95-2.87-2.1-5.68-3.02-8.56-.14-.45-.28-.9-.39-1.36-.01-.05-.02-.09-.03-.14-.01-2.02-.1-4.06-.16-6.08-.15-4.68-.4-9.44-1.44-14.02-.92-4.03-2.81-8.38-6.58-10.5-4.1-2.31-7.93-.75-11.31,1.93-3.4,2.7-6.31,6.17-8.93,9.75-4.6-1.97-9.82-2.67-14.7-2.94-2.35-.13-4.74-.14-7.11,0-1.11-2.19-2.28-4.35-3.64-6.39-1.67-2.5-3.71-5.16-6.44-6.59-3.23-1.69-6.69-1.62-9.94-.02-3.15,1.55-5.54,4.36-7.64,7.08-3.9,5.04-6.99,10.66-9.94,16.29-1.21,2.31-.67,5.54,1.79,6.84,2.3,1.22,5.54.68,6.84-1.79,2.49-4.74,5.08-9.47,8.15-13.87.29-.41.91-1.27.93-1.28.04-.06.07-.11.12-.16.03-.04,1.16-1.41,1.71-2,.44-.47.9-.93,1.39-1.37.24-.21.64-.5.73-.56.2-.13.41-.25.63-.37.05-.03.17-.1.28-.1s.18.07.23.11c.06.04.26.18.29.21s.3.27.45.41c.39.38.74.79,1.09,1.2.16.23.33.45.49.68,2.04,2.97,3.64,6.22,5.23,9.44.69,1.41,2.72,2.67,4.32,2.48,3.13-.37,6.33-.41,9.48-.27,1.37.06,2.74.19,4.11.33,0,0,.01,0,.02,0,.39.06.78.12,1.17.19.68.12,1.37.26,2.04.41,1.39.32,2.73.75,4.07,1.24.36.18.72.34,1.08.53.62.33,1.21.7,1.79,1.09,2.33,1.6,5.41.31,6.84-1.79.85-1.25,1.74-2.46,2.65-3.66.03-.04.06-.08.09-.12.19-.24.38-.48.57-.72.48-.59.96-1.18,1.45-1.77,1-1.18,2.03-2.34,3.13-3.42.51-.51,1.04-1,1.59-1.47.04-.03.07-.06.11-.09.11-.08.23-.16.34-.24.18.29.35.59.5.89.02.04.04.07.05.1.29.82.55,1.64.76,2.48.21.85.38,1.72.52,2.59.03.19.06.38.09.56.06.52.12,1.04.17,1.56.2,2.07.31,4.14.38,6.22.12,3.31-.2,6.86.67,10.09.66,2.47,1.68,4.85,2.53,7.25,1.17,3.31,2.22,6.67,2.94,10.1.19.94.18,2.17.53,3.06.02.22.05.45.07.67.05.54.09,1.08.12,1.62.06,1.09.07,2.19.03,3.28-.02.55-.06,1.1-.11,1.65-.02.21-.04.42-.06.62,0,.01,0,.02,0,.03-.19,1.11-.42,2.2-.73,3.29-.16.55-.34,1.09-.53,1.63-.09.24-.18.47-.27.7,0,.02-.01.02-.02.04-.56,1.14-1.14,2.25-1.83,3.32-.14.21-.28.41-.42.62-.05.07-.31.42-.44.61-.07.09-.14.17-.17.21-.3.36-.6.7-.91,1.05-1.75,1.94-2.06,5.18,0,7.07,1.91,1.76,5.2,2.07,7.07,0,3.58-3.96,6.28-8.67,7.51-13.89,1.09-4.66,1.13-9.39.5-14.1ZM72.61,102.67s0,.07.01.1c-.04-.32-.08-.73-.01-.1Z"/>
        <path class="cls-3" fill="#fff" d="M121.06,76.75c-10.1-.67-19.68,4.89-25.4,12.98-2.91,4.13-4.47,9-4.83,14.01-.09,1.21-.11,2.43-.19,3.64-.02.33-.11,2.65-.92,3.51s-2.44,1.49-2.7,1.57c-.42.13-.85.24-1.28.34-1.11.27-2.23.46-3.35.67-2.07.38-4.14.77-6.11,1.54-4.74,1.85-8.55,5.42-10.63,10.08-2.11,4.71-2.75,9.98-1.44,15.01,1.27,4.88,4.3,9.4,8.14,12.63,4.64,3.9,10.2,6.46,16.2,7.35,7.05,1.04,14.07.33,20.96-1.36,2.54-.62,4.31-3.63,3.49-6.15-.85-2.64-3.43-4.16-6.15-3.49-1.27.31-2.55.6-3.84.84-.61.11-1.22.22-1.83.31-.13.02-.45.06-.61.08-.27.03-.55.06-.82.09-2.67.27-5.37.32-8.05.08-.28-.03-.57-.06-.85-.09-.03,0-.05,0-.09-.02-.6-.1-1.21-.21-1.8-.34-1.23-.27-2.44-.6-3.62-1.02-.19-.07-.37-.14-.56-.21-.2-.13-1.19-.54-1.29-.59-.99-.5-1.95-1.05-2.87-1.67-.38-.26-.8-.51-1.15-.82-.23-.21-.51-.46-.59-.54-.82-.73-1.58-1.51-2.29-2.35-.08-.09-.13-.15-.17-.2-.04-.05-.08-.12-.15-.22-.31-.44-.61-.9-.89-1.36-.25-.41-.48-.84-.69-1.27-.04-.08-.19-.44-.27-.58-.03-.07-.06-.15-.08-.22-.31-.86-.53-1.74-.72-2.63-.02-.12-.04-.25-.04-.37-.04-.56-.06-1.12-.05-1.68,0-.41.04-.83.07-1.24.02-.15.04-.31.07-.44.19-.99.49-1.94.82-2.9.01-.04.02-.05.03-.08.06-.11.11-.21.13-.25.22-.45.46-.88.72-1.3.2-.33.43-.64.65-.96,0,0,.01,0,.02-.02.19-.2.36-.41.55-.6.3-.32.63-.6.95-.9.04-.04.06-.05.09-.08.16-.11.36-.23.34-.22.37-.24.75-.46,1.14-.66.03-.02.11-.06.2-.11.15-.06.3-.11.45-.16,3.63-1.25,7.58-1.29,11.18-2.67,2.33-.9,4.52-2.09,6.16-4.03,2.14-2.53,3.04-5.44,3.42-8.67.13-1.07.19-2.14.24-3.22.03-.54.05-1.08.08-1.62.02-.27.34-2.95.53-3.62.15-.5.42-1.04.6-1.53,0-.01.01-.03.02-.04-.11.36.15-.39.22-.53.5-1.06,1.07-2.08,1.72-3.05.13-.19.26-.39.4-.58.04-.06.09-.15.14-.24.24-.38.65-.76.94-1.08.75-.83,1.55-1.61,2.4-2.33.18-.15.36-.3.54-.45.03-.02.07-.04.11-.07.48-.33.96-.67,1.46-.98.93-.58,1.9-1.05,2.88-1.54.28-.1.55-.21.83-.31.5-.17,1-.33,1.5-.47.56-.15,1.13-.29,1.7-.4.22-.04.43-.08.65-.11.03,0,.06,0,.1,0,1.18-.07,2.33-.12,3.51-.04,2.62.17,5.12-2.42,5-5-.13-2.86-2.2-4.82-5-5ZM90.9,150.39c.25.04.63.11,0,0h0ZM84.69,148.77s-.03-.01-.05-.02c-.76-.28-.22-.1.05.02ZM74.36,129.98s.03-.1.08-.2c-.04.11-.08.2-.08.2Z"/>
        <g>
          <path class="cls-3" fill="#fff" d="M166.71,105.39c-1.47-2.81-3.26-5.53-5.42-7.86-3.11-3.35-7.77-6.48-12.53-6.52-2.62-.02-5.12,2.32-5,5,.12,2.62,2.04,4.77,4.66,4.96.42.1.85.18,1.26.32.08.03.31.14.48.2.3.15.59.3.88.46.44.26.86.54,1.28.83h0s.02.02.03.03c.3.29.62.54.92.83.67.64,1.25,1.34,1.87,2.03.04.05.08.11.12.16.66.93,1.28,1.89,1.85,2.88.74,1.27,1.42,2.58,2.04,3.92.13.27.25.55.37.82.06.16.13.32.19.48.36.92.69,1.84,1,2.78.65,1.98,1.17,4,1.57,6.04.1.52.2,1.05.28,1.57.05.3.15.64.2.94.12.77.19,2.36.25,3.55.14,2.65.09,5.31-.14,7.95-.06.72-.11,1.45-.23,2.16-.04.22-.09.5-.12.66-.22,1.23-.51,2.44-.9,3.63-.16.5-.33,1.01-.54,1.5-.14.27-.39.76-.47.9-.26.49-.54.96-.84,1.42-.03.05-.1.16-.16.27-.04.05-.08.1-.15.18-.12.14-.24.28-.36.41-.37.41-.77.77-1.17,1.14-.08.07-.13.12-.17.16-.16.09-.33.18-.44.25-.29.18-.66.45-1.03.62-.11.01-.25.04-.37.08-.34.11-.68.21-1.02.29-.08.02-.26.08-.43.13-.05,0-.09,0-.17.01-.6.04-1.19.07-1.79.05-.31,0-.67,0-1.01-.03-.11-.04-.25-.08-.35-.11-.36-.07-.71-.16-1.06-.25-.53-.14-1.04-.33-1.56-.5,0,0,0,0,0,0-.26-.14-.54-.26-.8-.4-.43-.23-.85-.47-1.26-.74-.22-.14-.48-.3-.71-.48-.08-.08-.17-.18-.29-.28-.38-.35-.75-.71-1.1-1.09-.22-.23-.59-.59-.69-.71-.17-.21-.77-1.19-.96-1.49-.37-.6-.71-1.22-1.02-1.85-.03-.06-.09-.17-.15-.29-.06-.15-.12-.31-.18-.47-.21-.54-.4-1.09-.57-1.65-.38-1.24-.65-2.51-.88-3.78-.02-.1-.03-.18-.04-.24-.03-.25-.04-.5-.06-.75-.05-.64-.09-1.28-.1-1.92-.02-.99.03-1.97.11-2.96.07-.9.26-1.83.34-2.74-.02.02-.04-.18-.01-.38.01-.09.03-.18.04-.28,0-.03,0-.05,0-.08,0,.02,0,.03,0,.05.03-.22.07-.45.1-.67.1-.64.2-1.28.31-1.92.48-2.8,1.02-5.58,1.67-8.35.6-2.54-.79-5.54-3.49-6.15-2.56-.58-5.51.77-6.15,3.49-.62,2.66-1.15,5.34-1.61,8.03-.81,4.67-1.62,9.51-1.16,14.26.62,6.38,2.7,12.43,6.93,17.33,3.96,4.59,10.04,7.34,16.1,7.38,6.53.04,12.29-3.37,15.74-8.85,3.28-5.21,4.17-11.59,4.43-17.62.42-9.92-1.71-19.97-6.33-28.77ZM141.54,142.41c-.09-.16-.17-.33-.17-.4.06.13.11.27.17.4ZM157.99,149.04s-.04.04-.07.06c.03-.02.05-.04.07-.06Z"/>
          <path class="cls-3" fill="#fff" d="M140.15,127.92s.04-.2.03-.68c0,0,0,.02,0,.02,0,.22-.01.44-.03.66Z"/>
        </g>
        <path class="cls-3" fill="#fff" d="M138.88,17.09c-7.48-2.82-16.47-.42-21.56,5.74-5.26,6.37-6.15,15.54-1.81,22.67,4.28,7.04,12.57,10.59,20.63,9.02,9.03-1.75,15.49-10.03,15.58-19.11-.08-8.2-5.18-15.44-12.84-18.33ZM137.24,49.04c-5.84,2.07-12.31.32-16.28-4.45-3.86-4.63-4.28-11.45-1.22-16.59,3.07-5.17,9.31-8.05,15.23-6.83,6.79,1.4,11.67,7.32,11.74,14.25-.06,5.96-3.78,11.6-9.48,13.62Z"/>
        <circle class="cls-4" fill="#fff" cx="132.21" cy="35.42" r="9.92"/>
        <path class="cls-3" fill="#fff" d="M50.6,109.53c-.91-.91-2.64-1.02-3.54,0-1.18,1.34-2.74,2.65-4.24,2.87-.61.09-1.16,0-1.66-.12-.13-.03-.7-.24-.73-.24-.3-.14-.6-.29-.88-.46-.27-.16-.52-.33-.78-.51-.05-.04-.12-.08-.17-.12-.1-.08-.19-.16-.29-.24-.44-.39-.86-.79-1.26-1.23-.16-.17-.31-.35-.47-.53-.03-.03-.09-.1-.14-.17,0,0,0,0-.01-.01.27-.24.52-.52.72-.86l3.63-6.28c1.34-2.32-.34-5.23-3.02-5.23h-7.26c-2.68,0-4.36,2.9-3.02,5.23l3.63,6.28c.2.34.45.62.72.86-.03.05-.07.1-.1.15,0,0,0,.01-.01.02-.13.15-.25.31-.38.45-.36.4-.74.77-1.14,1.13-.07.07-.15.13-.23.19-.04.03-.09.06-.15.1-.27.17-.54.34-.82.5-.13.07-.26.13-.39.2-.01,0-.02,0-.03.01-.33.12-.66.21-1,.28-.06.01-.07.02-.07.02-.03,0-.05,0-.09,0-.16.01-.33.02-.49.02,0,0-.33-.02-.44-.01-.1-.02-.29-.05-.32-.05-2-.48-3.56-1.94-4.96-3.53-.89-1.02-2.62-.91-3.54,0-1.01,1.01-.89,2.52,0,3.54,3.4,3.87,8.22,6.42,13.25,4.14,1.17-.53,2.27-1.31,3.23-2.23,1.05,1.03,2.23,1.92,3.5,2.56,4.77,2.38,9.54.68,12.94-3.17.89-1.01,1-2.54,0-3.54ZM28.62,111.49c.2-.09.17-.06,0,0h0Z"/>
      </g>
    </g>
  </g>
</svg>